<?xml version="1.0" encoding="UTF-8"?><svg id="uuid-b49af645-7cc2-4518-a1cd-fddf7d5e10d1" xmlns="http://www.w3.org/2000/svg" xmlns:xlink="http://www.w3.org/1999/xlink" viewBox="0 0 1291.1 458"><defs><style>.uuid-6b828c7f-997e-4f95-a95a-9260231ff5ec{fill:url(#uuid-3dfa3ece-dee4-4df0-b010-fc51af169189);stroke-width:0px;}</style><radialGradient id="uuid-3dfa3ece-dee4-4df0-b010-fc51af169189" cx="646.96" cy="173.37" fx="646.96" fy="173.37" r="243.79" gradientUnits="userSpaceOnUse"><stop offset="0" stop-color="#c9e9d2"/><stop offset="1" stop-color="#fef9f2"/></radialGradient></defs><g id="uuid-90c2d807-a02b-444a-9f0b-9c50aabfbd26"><path id="uuid-561fd789-8edb-4426-b9d9-cb89648482f7" class="uuid-6b828c7f-997e-4f95-a95a-9260231ff5ec" d="M711.43,14.76c9.77,1.22,19.54,2.66,29.19,4.44,99.9,17.87,194.81,53.39,288.61,88.8-71.99-35.6-147.04-64.65-224.23-86.81-39.53-11.24-80.18-18.05-121.22-20.31-39.29-2.12-78.7-.41-117.67,5.11-77.61,12.55-153.4,34.54-225.67,65.49-27.64,11.1-54.73,24.2-81.37,37.74,68.3-27.87,138.08-51.95,209.02-72.15,78.81-21.09,161.4-32.64,243.32-22.31ZM1080.52,141.75c68.82,49.51,136.54,66.6,210.02,52.06-20.83.96-41.7.7-62.5-.78-21.05-1.11-41.77-5.61-61.39-13.32-18.78-7.34-37.1-15.83-54.84-25.42-18.43-9.69-36.93-19.65-55.5-29.86,9.44,7.66,14.1,10.32,15.65,11.1l8.55,6.22ZM210.02,141.75c2.66-1.89,5.33-3.77,7.88-5.77,5.45-3.42,10.71-7.12,15.76-11.1-18.2,10.21-36.71,20.17-55.5,29.86-17.69,9.61-35.97,18.1-54.73,25.42-19.61,7.71-40.34,12.21-61.39,13.32-20.66,1.31-41.38,1.42-62.05.33,73.49,13.99,141.2-2.55,210.02-52.06ZM386.74,336.56c-46.96-24.42-86.36-61.39-136.43-102.01,100.75,121.57,254.6,186.17,411.94,172.95,26.09.11,52.04-3.63,77.04-11.1-184.27,18.98-278.07-21.2-352.55-59.83ZM1281.33,236.1c-48.29,2.44-97.68,3.77-143.42-11.88-37.3-13.21-69.93-36.19-103.12-57.61-104.01-66.6-222.34-117.22-346.56-121.11-74.71-2.44-148.3,1-220.46,22.2-70.26,21.03-137.24,51.74-199.03,91.25l-12.54,7.66c-33.3,21.31-65.72,44.4-103.12,57.5-45.62,15.76-95.02,14.43-143.42,11.99l-9.66-.56,59.61,11.1c5.2.58,10.24,2.13,14.87,4.55,6.41,4.76,11.62,10.96,15.21,18.09,11.5,17.94,26.26,33.56,43.51,46.07l-49.73-67.6c6.78-5.53,16.58-5.29,23.09.56,6.15,5.85,11.19,12.77,14.87,20.42,13.99,23.41,34.78,42,59.61,53.28-27.22-21.71-49.86-48.62-66.6-79.15l26.75-6.33c38.19,53.06,79.59,108.79,140.09,133.21-53.13-34.9-97.75-81.3-130.54-135.76l26.86-6.88c78.19,124.31,206.51,208.52,351.66,230.78-65.1-17.5-127.78-43-186.6-75.93-58.97-33.17-108.79-80.47-144.97-137.65-3.87-5.33-6-11.73-6.11-18.32,0-6.55,6.77-12.88,13.1-11.1,55.5,105.34,169.84,166.51,283.95,199.81,50.9,15.71,103.81,23.93,157.07,24.42,53.14-.66,105.92-8.88,156.74-24.42,114-33.3,228.67-94.35,283.84-199.81,6.33-1.78,12.54,4.55,13.1,11.1-.05,6.6-2.19,13.01-6.11,18.32-35.97,57.14-85.56,104.47-144.31,137.76-58.85,32.95-121.57,58.45-186.71,75.93,145.21-22.26,273.61-106.46,351.89-230.78l26.75,6.88c-32.83,54.56-77.53,101.04-130.76,135.98,60.5-24.98,101.79-80.7,139.98-133.21l26.86,6.33c-16.92,30.41-39.66,57.19-66.94,78.81,24.83-11.18,45.63-29.7,59.61-53.06,3.68-7.65,8.72-14.57,14.87-20.42,6.51-5.85,16.31-6.08,23.09-.56l-49.51,67.6c17.23-12.6,31.92-28.34,43.29-46.4,3.62-7.11,8.83-13.3,15.21-18.09,4.64-2.41,9.68-3.95,14.87-4.55l59.61-11.1-9.77.67ZM802.79,223.22c-.63-.32-1.37-.32-2,0l-1.11.67c-.65-.2-1.35-.2-2,0-.37.02-.7.23-.89.56-.56.72-.56,1.72,0,2.44.59.44,1.41.44,2,0h2.33c-2.12,5.94-4.56,11.76-7.33,17.43-.65-.62-1.59-.83-2.44-.56-.65.22-1.25.56-1.78,1,.08-.59.08-1.19,0-1.78-.16-.64-.8-1.03-1.44-.89-.9-.32-1.9,0-2.44.78-.5.61-.5,1.5,0,2.11.32.34.76.54,1.22.56h1.44c.07.25.07.52,0,.78.27.74.69,1.42,1.22,2,.4.1.82.1,1.22,0-5.2,9.43-11.34,18.32-18.32,26.53-.26-.82-1.13-1.27-1.95-1.02-.02,0-.03.01-.05.02-.47.32-.73.88-.67,1.44.09,2.03-.82,3.98-2.44,5.22-.28-.57-.7-1.07-1.22-1.44-.4-.1-.82-.1-1.22,0-1.56-.41-3.21.21-4.11,1.55-2.54-1.21-4.9-2.78-6.99-4.66.51.32,1.16.32,1.67,0,.11-.4.11-.82,0-1.22.05-.37.05-.74,0-1.11-1.33-.56-1.78,0-2.22,0s0,2,0,2.44l-4-3.22c1.81-.34,3-2.08,2.66-3.88,0,0,0,0,0,0-.33-1.29-1.45-2.23-2.78-2.33-.8.08-1.54.43-2.11,1-.53.6-.98,1.28-1.33,2l-19.98-16.1c-12.65-11.1-25.42-21.2-37.63-32.3l1.55-1.44c0,1.33,0,1.67.89,1.89.96.57,2.2.33,2.89-.56.56-.72.56-1.72,0-2.44-.37-.43-.88-.7-1.44-.78,2.11-2.44,4.44-5,6.55-7.77l1.78,1.22c-.47.21-.85.56-1.11,1,0,1.89.78,2.44,1.55,2.55.74.04,1.42-.41,1.67-1.11,5.22,2.44,10.32,5.66,15.43,8.66.11.53.33,1.02.67,1.44,1.54.21,3.01.74,4.33,1.55-1.02.17-1.74,1.08-1.67,2.11.12.54.44,1.01.89,1.33.49.29,1.01.51,1.55.67,1.55-.89,1.89-1.44,2-2.11,10.43,5.66,21.2,11.1,31.53,17.98-15.43-11.1-31.75-20.98-46.96-32.08,0,0,.78,0,1-.67.5-.7.5-1.63,0-2.33,1.55,0,2.11-1,2.33-1.78.29-.79.48-1.61.56-2.44,5.51,2.62,10.85,5.58,15.98,8.88-6.44-4.55-12.99-8.99-19.54-13.32.6-.22,1.05-.72,1.22-1.33.05-.55.05-1.11,0-1.67-1.44-1.22-2.11-1.22-2.66-1.11-.46.09-.87.37-1.11.78-.17.5-.17,1.05,0,1.55l-2.22-1.44c3.94-7.98,6.28-16.65,6.88-25.53.67-.93.67-2.18,0-3.11,16.54,0,33.3.78,49.73,1.44l23.53,1c1,1,1.89.78,2.33,0,5.66,0,11.1,0,16.21.78.28.79.74,1.51,1.33,2.11,0,0,0,.56.89.56.72.5,1.57.77,2.44.78.41.05.82.05,1.22,0v3.66c-.46,6.89-1.35,13.75-2.66,20.54-12.65-2.11-25.31-3.33-37.85-4.88-14.21-1.28-28.3-3.58-42.18-6.88l5.99,1.78c-.54.2-.87.76-.78,1.33,0,.51.38.94.89,1,12.32,1.11,24.09,3.22,35.63,5.33l4.77.78v1.89l1.11.78c1.44-.67,1.78-1,2-1.55,4.47.36,8.92.99,13.32,1.89,2.22,2.22,3,2.33,3.55,1.89.1-.33.1-.67,0-1h1.55c-.06.4-.06.82,0,1.22.17.4.49.72.89.89,1.04.29,2.16-.11,2.78-1,2.06.16,4.1.5,6.11,1l-.67,2.33c-.78-1.33-1.89-1.67-2.78-1.22-.51.31-.9.78-1.11,1.33-.11.55-.11,1.12,0,1.67,1.44,1.44,2.11,1.67,2.78,1.55.1,1.81-.16,3.62-.78,5.33-21.8-2.7-43.45-6.6-64.83-11.66,15.28,4.94,30.85,8.95,46.62,11.99-1.44.78-1.78,1.44-1.78,2.11-.11.66-.11,1.34,0,2,2,1.11,2.78,1.11,3.44.89.56-.23,1-.67,1.22-1.22.44-1.19.08-2.52-.89-3.33h2.66v2.78c.32.34.76.54,1.22.56.99-.1,1.85-.74,2.22-1.67,2.78-.01,5.54.36,8.21,1.11l1.78,3.55ZM746.07,300.93c-.55-.73-1.42-1.15-2.33-1.11-.64.14-1.24.41-1.78.78v3.11l-5.88,4.11-1-1.11c.06-.41.06-.82,0-1.22.14-.32.14-.68,0-1,.22-.46.22-.99,0-1.44-.25-.41-.59-.75-1-1-1.67,0-2.11.67-2.33,1.11-7.22-8.1-14.1-16.43-20.87-24.87-6.77-8.44-14.21-18.09-21.09-27.31-.05-.71-.47-1.35-1.11-1.67l-4.77-6.22,4.11,6.33c-.83.09-1.6.44-2.22,1,0,1.89,0,2.33.89,2.78.43.16.9.16,1.33,0,.79-.19,1.42-.78,1.67-1.55,6.22,9.44,12.65,18.65,19.2,27.97l10.21,14.21c-.78,0-1.11,1-.89,1.55.13.39.41.71.78.89h1c2.2,1.67,4.14,3.66,5.77,5.88-.86.9-.86,2.32,0,3.22.43.49,1.02.81,1.67.89h1.78c.89,1.33,1.89,2.55,2.89,3.77l-3.11,1.89c.23-.57.23-1.21,0-1.78-1.16-1.18-2.95-1.49-4.44-.78-1.25.66-1.92,2.05-1.67,3.44.29.79.84,1.45,1.55,1.89l-5.44-6.33c0-2.11-.67-2.22-1-2.11.67-2.44,0-3.11,0-3.66-.26-.39-.66-.66-1.11-.78-.91-.04-1.78.38-2.33,1.11l-1.67-2c1.27-.69,1.77-2.26,1.11-3.55-.54-.85-1.58-1.25-2.55-1-.56,0-.89.56-1.22,1.11l-17.09-19.87c.43-.8.43-1.76,0-2.55-.34-.66-.79-1.26-1.33-1.78-.22-.31-.53-.54-.89-.67-1.05.42-2,1.06-2.78,1.89-.21.57-.21,1.2,0,1.78.29,1.4,1.46,2.44,2.89,2.55.84.07,1.66-.26,2.22-.89l13.1,19.43c-.36-.44-.81-.78-1.33-1-1.57-.28-3.14.48-3.89,1.89-.78,1.06-.78,2.5,0,3.55.67.49,1.5.72,2.33.67.8-.12,1.59-.34,2.33-.67.43-.09.8-.38,1-.78.2-.99.2-2.01,0-3l8.21,12.21c-.78,0-1,0-1.11.67s.78,2,1.22,2,4.77,4.77,4.77,4.77l-1.67.78c.23-.68.23-1.42,0-2.11-1.33-.89-1.78-.89-2.33-.78s-.67-1.33-1-1.55c-.24-.41-.54-.79-.89-1.11-.52-.41-1.25-.41-1.78,0-.14.32-.14.68,0,1-.63.18-1.16.63-1.44,1.22-.46,1.31-.07,2.77,1,3.66.94.76,2.28.76,3.22,0,.12-.36.12-.75,0-1.11,0,1.89-1.22,2.55-2.55,3.11-1.05-.54-2.34-.2-3,.78-.66.65-1.45,1.14-2.33,1.44l-4.22,1.22c-.79-.27-1.65-.27-2.44,0-.3.28-.52.62-.67,1-3.44,1.22-6.99,2.33-10.55,3.22.11-.4.11-.82,0-1.22-.73-1.15-2.13-1.69-3.44-1.33-.7.33-1.28.88-1.67,1.55-1.22-2-1.89-2.11-2.44-2-.48.06-.89.35-1.11.78-.61.82-.61,1.95,0,2.78-.36.14-.64.42-.78.78-.16.35-.16.76,0,1.11l-4.44.78c.67-.56,1.22-1,1.33-1.67.21-.82-.15-1.69-.89-2.11-.51-.16-1.05-.16-1.55,0-1.15.32-2.21.89-3.11,1.67,0,2,0,2.44.56,2.78l-7.1,1.11c.49-.3.85-.78,1-1.33.25-1.36-.37-2.73-1.55-3.44-1.05-.51-2.31-.29-3.11.56-.45.56-.65,1.28-.56,2-.06.52-.06,1.04,0,1.55-.42.31-.8.69-1.11,1.11-2.99.17-6,.17-8.99,0v-1.89c0-.67.78-.78.78-1.11-.69-1.88-1.03-3.88-1-5.88.19-.42.19-.91,0-1.33-.61-3.67-.95-7.38-1-11.1.49.22,1.06.22,1.55,0,.63-.86.63-2.03,0-2.89-.43-.8-1.34-1.21-2.22-1l-1-21.2c0-4.44,0-8.77-.78-13.21.83-.24,1.3-1.1,1.07-1.92-.02-.06-.04-.13-.07-.19-.15-.45-.53-.79-1-.89-.05-.78-.05-1.56,0-2.33.52-.73.52-1.71,0-2.44-.89-9.21-1.44-18.09-2.33-26.97.5.92,1.41,1.54,2.44,1.67,1.19.13,2.33-.55,2.78-1.67.28-.71.28-1.51,0-2.22-.23-.42-.53-.79-.89-1.11,3.17-.18,6.32-.59,9.44-1.22l16.21,59.72c-.35.24-.65.54-.89.89-.45,1.06-.13,2.29.78,3,.43.14.9.14,1.33,0-1.41.62-2.33,2.01-2.33,3.55.1,1.2,1.02,2.18,2.22,2.33.51.16,1.05.16,1.55,0l2.11,7.55-1.67-7.77c.54-.46,1.02-.98,1.44-1.55v-1c-.53-.96-1.29-1.76-2.22-2.33.32-.71.54-1.45.67-2.22.11-.59.11-1.19,0-1.78-1.33-1-1.78-.89-2.11-.89l-9.1-49.4c.17.37.49.66.89.78.97.18,1.94-.26,2.44-1.11.48-.66.48-1.56,0-2.22-.43-.16-.9-.16-1.33,0h-1.44c-.67.56-2.11-6.44-2.11-6.44.41-.15.78-.38,1.11-.67,3.48-2.5,7.2-4.65,11.1-6.44.87.44,1.9.44,2.78,0,.52-.44.8-1.1.78-1.78,2.89-1.76,5.67-3.69,8.33-5.77,11.1,12.32,22.87,24.09,34.52,35.85l16.32,16.32c0,.56-.56.89,0,1.33.66.94,1.53,1.7,2.55,2.22.47.17.98.17,1.44,0l1.44,1.44c.16.84.82,1.5,1.67,1.67l1,.89c.05.65.57,1.17,1.22,1.22l2.33,2.33c-1.22,0-1.44,1.22-1.22,1.78.16.37.43.68.78.89h1.11c1-.67,1-1,1-1.22l5.55,5c-4.22,3.44-8.1,6.66-12.21,9.77ZM683.13,330.57c.11-.51.29-.99.56-1.44-.05.44-.05.89,0,1.33l-.56.11ZM629.95,334.23c.24-.94,0-1.95-.67-2.66.56-2,0-2.33,0-2.44.28-.52.28-1.14,0-1.67.04-.44.04-.89,0-1.33h-2.55c-.13.32-.13.68,0,1-.1.93.45,1.8,1.33,2.11-1,.78-2.22,1.22-2.78,2.33-.11.55-.11,1.12,0,1.67l-6.77-1c-.36-.95-1.34-1.5-2.33-1.33-.43.15-.82.42-1.11.78-3.44-.67-6.88-1.55-10.21-2.44.35-.25.62-.6.78-1,0-.89-.56-1-.78-1l20.09-60.72-26.2,60.94c-1-1-1.33-1-1.55-1-2.58.35-5.21-.07-7.55-1.22,1.12.54,2.43.54,3.55,0l.78-.78c1.38.83,3.16.55,4.22-.67.76-1.02.76-2.42,0-3.44-.5-.63-1.21-1.06-2-1.22-.77-.11-1.56-.11-2.33,0-.35-.16-.76-.16-1.11,0h-1.33c-.44,0,18.98-55.5,18.98-55.5l-20.42,47.51c-.36.12-.67.35-.89.67-.28.48-.28,1.07,0,1.55l-1.22,2.78-2.66,6.11c-1.44-.56-3-1-4.44-1.67v-2.55c-.43-.49-1.02-.81-1.67-.89h-1.89s0-.89.67-1.44c.15-.36.15-.75,0-1.11-.56-1-1.41-1.81-2.44-2.33-.6-.28-1.29-.28-1.89,0h-1.22c-1.54.07-2.87,1.09-3.33,2.55-.67,0,0-.56,0-1.11.1-.55.1-1.11,0-1.67-1.89-.78-2.55-.67-3.11,0-.44.23-.76.63-.89,1.11l-2.44-1.33c1.34-.07,2.48-1.02,2.78-2.33.06-.83-.18-1.66-.67-2.33-.45-.72-1.05-1.33-1.78-1.78-.32-.34-.76-.54-1.22-.56-1.14.58-2.1,1.46-2.78,2.55-.28.68-.28,1.43,0,2.11-2.22-1.33-4.55-2.66-6.66-4.11.75-.58,1.16-1.5,1.11-2.44-.14-1.04-.96-1.86-2-2-.65-.1-1.3.1-1.78.56-.36.34-.7.71-1,1.11-4.11-3-8.1-6.11-11.99-9.44,1.11-.83,1.44-2.34.78-3.55-.45-.65-1.12-1.13-1.89-1.33.49-.9.49-1.99,0-2.89-.26-.41-.65-.72-1.11-.89,1-1.78.78-2,.56-2.11,1,0,1.89-.61,2.22-1.55.27-.64.27-1.36,0-2,0,0,0-.56-.78-.89-.78-2.11-1.44-2.66-2.22-2.89-1.44-.28-2.84.67-3.12,2.11-.09.48-.05.98.12,1.44.14.66.6,1.2,1.22,1.44-.16.54-.16,1.12,0,1.67.18.67.76,1.15,1.44,1.22-.39.59-1.08.89-1.78.78-.35-.18-.76-.18-1.11,0-.54.98-.77,2.1-.67,3.22-.72-.48-1.39-1.04-2-1.67-1.55-1.55-3-3.33-4.55-5-.22-.86-.55-1.68-1-2.44l6.88-6.33c1,3.33,1.55,3.55,2.22,3.66.43.17.9.17,1.33,0,.52-.57.76-1.34.67-2.11.25-.57.25-1.21,0-1.78-.49-.87-1.46-1.35-2.44-1.22l5.66-5.22c.49.81,1.39,1.28,2.33,1.22.8-.05,1.53-.46,2-1.11.44-.63.81-1.3,1.11-2,.15-.39.15-.83,0-1.22-1.22-1,51.28-49.62,51.28-49.62l-78.7,59.72-1.89-2.44c.89,0,1.33-.89,1.22-1.44-3.33-1.89-3.22-2.33-3.33-2.66-.18-.63-.63-1.16-1.22-1.44-.79-.39-1.48-.96-2-1.67.77-1.18.77-2.7,0-3.89-.69-1-1.97-1.41-3.11-1l-2.22-3.44c.28.54.65,1.03,1.11,1.44.92.61,2.16.37,2.77-.55.22-.33.34-.72.34-1.11.14-.87-.32-1.73-1.11-2.11-.35-.79-.8-1.54-1.33-2.22-.39-.15-.83-.15-1.22,0-.97.11-1.77.82-2,1.78-1.18-1.2-2.16-2.59-2.89-4.11l1.67-.89c0,.67.56,1.44,1.22,1.67.68.28,1.43.28,2.11,0,.69-.26,1.32-.64,1.89-1.11.31-.22.54-.53.67-.89-.23-.8-.6-1.56-1.11-2.22,14.46-7.12,28.41-15.25,41.74-24.31-13.72,7.82-27.96,14.68-42.63,20.54.45-.63.76-1.35.89-2.11.25-.57.25-1.21,0-1.78-.65-.7-1.61-1.03-2.55-.89l2-.56s.89,0,1-.78c.22-.87.22-1.79,0-2.66l5.11-1.89c-.73.22-1.39.64-1.89,1.22-.76,1.1-.76,2.56,0,3.66.62.55,1.4.9,2.22,1h2.44c.42-.05.82-.24,1.11-.56.32-1.16.32-2.39,0-3.55-.23-.68-.77-1.21-1.44-1.44-.68-.28-1.43-.28-2.11,0l11.1-4c12.22-4.67,24.18-9.97,35.85-15.87-12.49,4.87-25.24,9.05-38.19,12.54-7.99,2.66-16.1,5-24.2,7.44.3-.39.3-.94,0-1.33h-2.33c-.54-.37-1.14-.63-1.78-.78-.34-.22-.77-.22-1.11,0-1.9-4.12-3.46-8.39-4.66-12.77.21-.5.21-1.06,0-1.55,0-1.67-.67-2.55-1.33-2.78-1.7-5.55-2.96-11.23-3.77-16.98.53.26,1.14.26,1.67,0,1.13-.36,1.92-1.37,2-2.55,0-.97-.63-1.82-1.55-2.11-1-.56-1.33-1-1.89-1.22-.36-.1-.75-.1-1.11,0,0-4.11-.78-8.33-.89-12.54.15-.39.15-.83,0-1.22l21.2-.56c.17.4.43.74.78,1,.65.52,1.57.52,2.22,0,.06-.37.06-.74,0-1.11h4.11c-.24.37-.24.85,0,1.22.39.17.83.17,1.22,0h1.33c0-1.44,67.27-5.77,67.27-5.77l-83.92-2.55c.33-.82.33-1.73,0-2.55-.81-1.11-2.28-1.52-3.55-1,.16-.47.16-.98,0-1.44.13-1.19-.55-2.33-1.67-2.78-.68-.27-1.43-.27-2.11,0h-2.78c-.56-1.55-1.33-2.44-2.22-2.44-.62-.02-1.23.22-1.67.67,0-4.22.78-8.55,1.33-12.88.89.56.78,1.22,1,1.78.34.73.93,1.32,1.67,1.67.77.1,1.56.1,2.33,0,0,1,1.11,2.22,2.11,2.66.72.56,1.72.56,2.44,0,.16-.51.16-1.05,0-1.55.05-.55.05-1.11,0-1.67h-2.66c.16-.81.16-1.64,0-2.44-.02-.64-.3-1.24-.78-1.67l52.73,4.66c0,.89-.67,1.33,0,1.67.73.98,1.73,1.72,2.89,2.11.61.22,1.28.22,1.89,0,1.37-.77,2.02-2.39,1.55-3.89-.35-1.25-1.48-2.11-2.78-2.11-.81.02-1.58.38-2.11,1-.3.42-.56.86-.78,1.33l-49.18-8.1c.61-.23,1.14-.61,1.55-1.11.2-.46.2-.98,0-1.44-.18-1.2-1.13-2.15-2.33-2.33-1.05-.13-2.05.47-2.44,1.44-.21.57-.21,1.2,0,1.78.23.55.57,1.04,1,1.44l-6.77-1.11c.66-.72,1.12-1.6,1.33-2.55.17-.39.17-.83,0-1.22-.46-1.1-.46-2.34,0-3.44l12.99,2.11c-.47.62-.78,1.34-.89,2.11,1.22,1.78,2,2.11,2.66,2.11.5.17,1.05.17,1.55,0,.97-.87,1.25-2.28.67-3.44,13.43,2.33,26.97,4.44,40.63,6.22-1.44,1.78-1.33,3.33,0,4.11.62.53,1.41.81,2.22.78.77-.01,1.53-.2,2.22-.56,0,0,.89,0,1-.67.3-.98.3-2.02,0-3l6.55.78-6.66-1.22c-.34-.55-.84-.98-1.44-1.22-.78-.32-1.66-.32-2.44,0-18.43-3.55-36.63-7.99-54.95-12.21l1.11-.78c.21-.5.21-1.06,0-1.55-.25-1.14-1.18-2.02-2.33-2.22,0-1.44.78-3,1.22-4.44.24-.45.24-.99,0-1.44,4.59-13.82,10.93-26.99,18.87-39.18,1.11-.56,1.44-.89,1.67-1.33.26-1,.71-1.95,1.33-2.78,1.71.27,3.33-.86,3.66-2.55.25-.6.25-1.28,0-1.89l.89-1.44,3.77,2.66c-.45.03-.87.28-1.11.67-.17.39-.17.83,0,1.22-.06.4-.06.82,0,1.22h2.33c4.58,1.67,8.89,4.03,12.77,6.99l22.2,14.76c13.88,9.55,27.86,18.76,41.4,28.75-3.71,4.15-6.92,8.74-9.55,13.65l-5.11-2.33c.69-.56.96-1.49.67-2.33-.28-.54-.76-.94-1.33-1.11h-1.33c-.19-.79-.86-1.37-1.67-1.44v-2.66c0-.22-2.33.89-2.33,1.67-.07.76.47,1.44,1.22,1.55l-.78,1.22c0,.56-2.78-.67-2.78-.67v-1.44c-1.89-1.22-2.66-1.33-3.33-1.11s-52.28-22.2-52.28-22.2l44.4,23.31c-1.67.67-2,1.44-1.78,2.11l.89.89h1.33c-.06.37-.06.74,0,1.11.4.82,1.36,1.21,2.22.89h2.89c.45-.32.77-.79.89-1.33l4.33,2.33c1.11,1.67,1.55,2,2.11,2,2.91.78,5.71,1.94,8.33,3.44-1.67,1.89-1.55,2.44-1.22,3,.2.4.56.69,1,.78.46,1.06.46,2.27,0,3.33-.21-.65-.77-1.13-1.44-1.22-.66.02-1.26.4-1.55,1-.11.4-.11.82,0,1.22l.78,1h1.55c-1.96,6-3.08,12.23-3.33,18.54.07,3.38.37,6.76.89,10.1l-2.22.67c-.63-.6-1.47-.92-2.33-.89-.77-.16-1.56-.16-2.33,0-.44.08-.83.32-1.11.67-2.64,2.18-5.7,3.81-8.99,4.77-.17-.96-.92-1.72-1.89-1.89-.73-.08-1.46.17-2,.67-.53.44-.98.96-1.33,1.55-12.65,5.96-25.8,10.79-39.3,14.43,21.09-4,41.52-11.1,62.27-15.76-1.35.4-2.32,1.59-2.44,3-.02,1.16.91,2.12,2.08,2.14.5,0,.98-.16,1.36-.47v1.11l-13.43,4.66c-.89-2.22-1.78-2.11-2.33-1.67-.37.45-.37,1.1,0,1.55.24.32.54.58.89.78l-4.88,1.78c-1.33,0-1.67,0-1.78.56-7.66,2.66-15.32,5.22-23.09,7.33,7.99-1.55,15.87-3.55,23.76-5.66h1.67l20.2-5.55c2.22,3.89,3.77,7.33,5.66,10.55v1.33c-.31-.88-1.18-1.44-2.11-1.33-.59.13-1.11.49-1.44,1-.41.47-.68,1.05-.78,1.67,1,1.67,1.55,2,2.22,2.11.47.17.98.17,1.44,0,.81-.68,1.11-1.78.78-2.78,4.78,6.5,10.33,12.39,16.54,17.54l1.44,1.11-3.55,5.99v-1.55c-1.16-.34-2.39-.34-3.55,0-.65.13-1.22.54-1.55,1.11-.87,1.23-.87,2.88,0,4.11.4.38.9.65,1.44.78,0,1.22-28.2,49.51-28.2,49.51l13.76-19.87c-.11.55-.11,1.12,0,1.67.07.53.35,1.01.78,1.33.97.78,2.36.78,3.33,0,.87-.63,1.19-1.78.78-2.78-.35-.52-.85-.91-1.44-1.11h-1.89l17.32-25.64c1.36-.48,2.25-1.78,2.22-3.22l2.55-3.66c.51.11,1.04.11,1.55,0,1.67-1.33,1.78-2,1.78-2.55l5.33,2.89-5.55,9.44c-1,0-1.44,0-1.55.89-3.56,7.6-7.53,15.02-11.88,22.2l15.98-23.2c.2.34.46.65.78.89.75.28,1.58.28,2.33,0l1.89-1.22s.67-.67.67-1c-.25-.82-.66-1.57-1.22-2.22.65,0,1.28-.24,1.78-.67.65-.81.65-1.96,0-2.78l4.11,1.44c-.66.51-1.06,1.28-1.11,2.11-.23,1.3.52,2.58,1.78,3,.75.27,1.58.27,2.33,0,.7-.38,1.34-.87,1.89-1.44.1-.33.1-.67,0-1,1.72-.38,3.5-.38,5.22,0-.14.7-.14,1.41,0,2.11.22.38.58.66,1,.78.98.29,2.03-.12,2.55-1,.17-.39.17-.83,0-1.22h4.33c.36.65.85,1.22,1.44,1.67.58.17,1.2.17,1.78,0,0,15.65-.78,30.42-1.44,45.29.04-.37.04-.74,0-1.11-.48-.66-1.08-1.23-1.78-1.67-.32-.34-.76-.54-1.22-.56-1.11.58-2.04,1.46-2.66,2.55-.32.63-.32,1.37,0,2,.59,1.52,2.04,2.53,3.66,2.55,1.23-.11,2.27-.94,2.66-2.11v2.33l-1.33,26.86c-1.33-.78-2.44,0-2.89,0-.43.64-.43,1.47,0,2.11.39.15.83.15,1.22,0,.47.11.97.11,1.44,0v4.88c-2,.89-2,1.22-1.78,1.55s1.33,0,1.67,0,0,2.11,0,3.11c-.65-.7-1.65-.96-2.55-.67-.75.37-1.2,1.17-1.11,2,.12.45.4.84.78,1.11l1.22.67c.26.59.68,1.09,1.22,1.44-.44.06-.89.06-1.33,0-1.44,1.22-1.44,1.67-1.44,2.22-2.67.75-5.46.98-8.21.67ZM502.63,253.86c-.33-.62-.7-1.21-1.11-1.78.43.55.8,1.15,1.11,1.78ZM481.65,160.06c-.11.4-.11.82,0,1.22.49.58,1.26.84,2,.67,0,0,.89.78,1.44,1.11.53.26,1.14.26,1.67,0,.66-.11,1.26-.47,1.67-1-.46.36-.84.82-1.11,1.33-.05.52-.05,1.04,0,1.55h-1.67c-.78-.56-1.22-.56-1.55,0-1.77.16-3.56.16-5.33,0v-5.44c.33.06.67.06,1,0,.46.22.99.22,1.44,0,0,0,.33.56.44.56ZM498.52,233.21c.14,1.22,1.25,2.09,2.46,1.95.11-.01.21-.03.31-.06-1.03.12-1.88.87-2.11,1.89.17-.5.17-1.05,0-1.55-.29-.92-1.14-1.55-2.11-1.55-.61,0-1.19.28-1.55.78-.4.45-.7.98-.89,1.55.78,1.89,1.33,2.22,2,2.44.46.18.98.18,1.44,0,.45-.34.8-.8,1-1.33,0,1.44,0,2.11,1,2.44.62.39,1.29.69,2,.89l-5.77,2.55c-1.22-2.44-2.55-5-3.66-7.55l5.88-2.44ZM554.03,60.38c-.63.73-.92,1.71-.78,2.66.25,1.23,1.3,2.14,2.55,2.22.79,0,1.55-.32,2.11-.89.51-.56.92-1.2,1.22-1.89.15-.36.15-.75,0-1.11-.43-.54-.96-.99-1.55-1.33,1.33,0,2,1.22,2.78,1.44,1.1.32,2.28-.13,2.89-1.11,4.58-1.21,9.26-1.99,13.99-2.33-.06.89.31,1.76,1,2.33.63.4,1.3.73,2,1,.35.16.76.16,1.11,0,.78-.75,1.32-1.72,1.55-2.78.64-.73,1.59-1.1,2.55-1-1,1.1-1,2.78,0,3.89.88.69,2.12.69,3,0,.52-.39.91-.93,1.11-1.55.05-.55.05-1.11,0-1.67.45-.39.8-.88,1-1.44h10.1l.89,1.55c-.22.72-.22,1.5,0,2.22.08.53.41.98.89,1.22.44.12.9.12,1.33,0,4.55,7.88,9.88,14.99,13.88,22.98-2.89-8.88-7.33-17.32-11.1-25.75.37.06.74.06,1.11,0,.65-.64.98-1.54.89-2.44h2l.67,1.33c-.42.19-.79.45-1.11.78,0,1.11,0,1.33.78,1.55,3.07,3.12,5.35,6.92,6.66,11.1-.81-4.94-2.04-9.8-3.66-14.54h7.77c.25.28.55.51.89.67,1.03.43,2.21.11,2.89-.78h17.32l4,43.29h-1.22c-7.79.02-15.53,1.37-22.87,4-1.22-1.55-1.78-1.78-2.44-1.78-.5,0-.98.2-1.33.56-.57.88-.57,2.01,0,2.89-.89-1.11-2.15-1.86-3.55-2.11.28-.48.47-1.01.56-1.55.03-.79-.35-1.55-1-2-1.15-.72-2.62-.72-3.77,0-1.05.6-1.59,1.81-1.33,3,.24.69.71,1.28,1.33,1.67.4.06.82.06,1.22,0-3.01-.47-5.7-2.15-7.44-4.66.56-.26.9-.83.89-1.44,0-.67,0-1.22-1.11-1.22-9.77-6.88-18.2-14.65-27.42-21.09h3.11c.3-1.09.3-2.24,0-3.33-.26-.57-.74-1.01-1.33-1.22-1.37-.49-2.89-.04-3.77,1.11-.78.97-.78,2.36,0,3.33.5.51,1.17.83,1.89.89,11.46,10.51,22.07,21.91,31.75,34.08-5.19,3.07-9.97,6.8-14.21,11.1-12.43-11.1-25.64-22.2-38.52-32.64l-19.65-15.65c.59-1.04.82-2.25.67-3.44-.06-.68-.43-1.29-1-1.67,1.33-2.11,1.55-3.11,1.33-4-.15-.43-.42-.82-.78-1.11.49-.55.87-1.19,1.11-1.89l16.21-1.44ZM664.03,56.83c.67,1.11,1.11,1.55,1.67,1.78.42.22.91.22,1.33,0,.7-.32,1.17-1.01,1.22-1.78h14.99l-1.33,5.33c-.67,1-.67,1.33-.56,1.67-2.22,8.21-4.77,16.43-7.55,24.42,3.77-7.77,7.33-15.65,11.1-23.64.11-.32.11-.68,0-1,.78-2.33,1.55-4.55,2.44-6.66h12.77c.32.67,1.03,1.07,1.78,1,.43-.15.82-.42,1.11-.78h8.55c-.79.32-1.4.97-1.67,1.78-.17.73-.17,1.49,0,2.22-5.59,8.3-11.71,16.24-18.32,23.76l-6.66,7.77s-.67-.56-1.11,0c-3.06,4.79-6.52,9.32-10.32,13.54-7-3.22-14.52-5.18-22.2-5.77-1.55-1.33-2.22-1.33-2.89-1.11-.49.1-.91.43-1.11.89l1.67-24.87c.54-.05,1.05-.29,1.44-.67.52-.65.52-1.57,0-2.22-.32-.45-.79-.77-1.33-.89-.17-2.96-.17-5.92,0-8.88.82.12,1.65-.17,2.22-.78.55-1.04.55-2.29,0-3.33,1.42-.35,2.69-1.13,3.66-2.22l9.1.44ZM758.94,65.71c1.08.71,2.48.71,3.55,0,.33-.46.56-.99.67-1.55l3,.56c1.44,1.44,2.11,1.55,2.78,1.44.5-.07.94-.36,1.22-.78h1.89l-11.99,9.44c-1.08-1.06-2.81-1.06-3.89,0-.67.85-.67,2.04,0,2.89l-55.5,43.74c-.21-.53-.6-.96-1.11-1.22-.75-.28-1.58-.28-2.33,0-.76.26-1.47.63-2.11,1.11-2.44-1.78-4.66-3.77-6.99-5.66l11.88-14.54c5.77-7.1,11.88-13.99,16.98-21.54-5.77,6.99-12.43,13.32-18.87,19.76l-4.66,4.55c.34-.7.34-1.52,0-2.22-.49-.53-1.17-.85-1.89-.89-.66-.11-1.34-.11-2,0-1.22,1.89-1.22,2.55-1,3.22-.57.3-1.04.76-1.33,1.33-.21.82.15,1.69.89,2.11-.37.55-.66,1.15-.89,1.78-.61,1.09-1.4,2.06-2.33,2.89-2.15-1.57-4.41-2.98-6.77-4.22l15.65-21.54c5.66-7.99,11.1-15.76,16.43-24.31.88.86,2.1,1.31,3.33,1.22.61-.09,1.14-.46,1.44-1,.81-1.13.81-2.65,0-3.77-.33-.29-.7-.51-1.11-.67,14.99,1,29.97,2.33,44.4,4.55-.17.47-.17.98,0,1.44.09.58.41,1.1.89,1.44l-.22.44ZM711.77,153.07c.47.16.98.16,1.44,0h-1.33c.09-.13.13-.29.11-.44l-.22.44ZM712.54,204.35h-1.33c-.7.08-1.34.44-1.78,1-.94,1.29-.94,3.04,0,4.33-2.69.13-5.31-.87-7.22-2.78,1.29-2.01,2.48-4.08,3.55-6.22l6.77,3.66ZM648.94,143.19c-.62-1.02-.62-2.31,0-3.33.36-.39.77-.73,1.22-1-.63-.78-.63-1.89,0-2.66,1.44-2,2.44-2.44,3.44-2.44.6.05,1.16.33,1.55.78,1.21-.48,2.56-.48,3.77,0,1.65.56,2.83,2.04,3,3.77.06.4.06.82,0,1.22,1.11,1.78,1.22,3.33,0,4-.16.74-.5,1.43-1,2-.32.39-.69.73-1.11,1-.77.57-1.7.88-2.66.89h-1.55c-.94.28-1.94.28-2.89,0-.6-.9-.98-1.92-1.11-3-.98-.27-1.84-.85-2.44-1.67l-.22.44ZM610.86,151.85c-1.86.09-3.71-.21-5.44-.89-.88-.44-1.64-1.09-2.22-1.89-.46-.31-.87-.68-1.22-1.11-1.37-1.48-2.13-3.42-2.11-5.44-.69-2.07-.88-4.28-.56-6.44.44-.86.48-1.88.11-2.78-1.78-3.44.89-6.22,3.22-8.66,2.03-1.81,3.24-4.38,3.33-7.1-.35-1.33-.11-2.75.67-3.89,1.5-.9,3.38-.9,4.88,0,.45.17.84.48,1.11.89.99-.49,2.03-.86,3.11-1.11,1.8-.4,3.68-.16,5.33.67,4.66-2.22,8.44,2.89,11.1,6.55,1.12,1.49,2.02,3.13,2.66,4.88.88,1.39,1.59,2.88,2.11,4.44.39,1.11.39,2.33,0,3.44.1.4.1.82,0,1.22.27,1.06.27,2.16,0,3.22.27,1.86-.04,3.76-.89,5.44-.74,1.54-2.2,2.62-3.89,2.89-2.43,2.81-6.06,4.3-9.77,4l-11.54,1.67ZM533.16,63.04c-.5.18-.98.4-1.44.67-1.01.84-1.29,2.28-.67,3.44.29.5.77.86,1.33,1-.52.52-1,1.08-1.44,1.67l-3.44-3.11c.57.39,1.32.39,1.89,0,.22-.42.22-.91,0-1.33.1-.44.1-.89,0-1.33,1.34-.41,2.72-.71,4.11-.89,0,0,.11-.33.22-.22l-.56.11ZM525.94,65.71l-2.11-1.78h2.22c-.08.59.08,1.19.44,1.67l-.56.11ZM562.46,130.65l-1-.67c-1.33-1,1.11,0,1.11,0l-.11.67ZM806.68,126.98c-.32.63-.32,1.37,0,2,.05.52.05,1.04,0,1.55-.19.42-.19.91,0,1.33.05.77.41,1.49,1,2,.75,2.89,1.34,5.82,1.78,8.77-.32-.65-.77-1.21-1.33-1.67h-.89c-1.03.34-1.95.95-2.66,1.78-.25.57-.25,1.21,0,1.78.35,1.36,1.49,2.37,2.89,2.55,1.47.12,2.75-.97,2.88-2.43,0-.08,0-.15,0-.23l.67,4.77c-.67.01-1.32.21-1.89.56-.66.65-1.36,1.24-2.11,1.78-.45.61-.68,1.35-.67,2.11-.38.44-.61.98-.67,1.55-.05.95.54,1.81,1.44,2.11.49.22,1.06.22,1.55,0,.38-.2.72-.46,1-.78h1.33c.64,2.09.94,4.26.89,6.44-1.67-.56-2.44,0-2.55.78l-45.73,2.33c-16.65,1-33.3,1.89-49.95,3.33-.06-.37-.06-.74,0-1.11-.02-3.46-.31-6.91-.89-10.32l1.89-.56v2.44c.75.92,2.04,1.19,3.11.67.63-.07,1.26-.07,1.89,0,.7.09,1.41.09,2.11,0-.28.75-.28,1.58,0,2.33.35.75.84,1.43,1.44,2,.26.36.67.6,1.11.67,1.19-.38,2.27-1.07,3.11-2,.26-.64.26-1.36,0-2-.27-1.57-1.53-2.78-3.11-3-.59-.12-1.19-.12-1.78,0,.04-.92-.15-1.84-.56-2.66,5.39-2.38,10.96-4.34,16.65-5.88,1.89,1.89,2.66,1.78,3.33,1.55,1-.58,1.43-1.81,1-2.89l49.62-14.76-80.03,18.87c1.14-.45,1.88-1.55,1.89-2.78-.13-1.05-.87-1.92-1.89-2.22-.58-.15-1.19-.15-1.78,0-1.16-1.16-1.97-2.62-2.33-4.22l5.22-1.55c-.38.25-.69.59-.89,1-.05.44-.05.89,0,1.33,1.11,1.11,1.55,1.22,2.11,1.11.96.87,2.31,1.17,3.55.78.72-.27,1.28-.84,1.55-1.55.11-.74.11-1.48,0-2.22.11-.4.11-.82,0-1.22-.62-.18-1.27-.18-1.89,0l39.18-11.77-50.17,11.88c-1.3-3.14-2.9-6.15-4.77-8.99.11-.62.11-1.26,0-1.89.16-.35.16-.76,0-1.11-1.76-1.12-3.3-2.55-4.55-4.22,1.11-.35,1.98-1.22,2.33-2.33.06-.44.06-.89,0-1.33l76.93-48.95c1.89,1.44,2.78,1,3.11,0,.28-.48.28-1.07,0-1.55,1.66,1.86,3.14,3.87,4.44,5.99-.1.36-.1.75,0,1.11-.12.84.13,1.68.67,2.33h-1.11c-.79.17-1.57.39-2.33.67-.4.17-.74.43-1,.78-.03,1.23.24,2.45.78,3.55.37.59.98.99,1.67,1.11,1.57.28,3.14-.48,3.89-1.89.33-.86.33-1.81,0-2.66.29.31.69.51,1.11.56.78.68,1.42,1.51,1.89,2.44-1.44,0-2-.67-2.44,0-.48.07-.87.42-1,.89-.82.63-1.24,1.64-1.11,2.66.16.79.64,1.47,1.33,1.89l-54.28,32.41,61.61-30.86,1,2.22c-.95-.24-1.94-.24-2.89,0-.44.08-.83.32-1.11.67-.31,1.2-.31,2.46,0,3.66.27.67.85,1.17,1.55,1.33l1.33.67c.39.17.83.17,1.22,0l1.22-.44c4.83,8.4,8.41,17.44,10.66,26.86l-.56.11ZM715.98,142.63c-.42-.22-.91-.22-1.33,0h1.44s-.11-.22-.11,0ZM1055.88,248.64c-5.97,7.62-12.46,14.81-19.43,21.54-63.79,63.3-142.52,109.5-228.89,134.32-26.75,7.55-53.95,13.1-81.26,17.98-53.43,9.82-108.2,9.82-161.62,0-27.31-4.88-54.5-10.43-81.14-17.98-86.42-24.79-165.19-70.99-229-134.32-6.93-6.75-13.42-13.95-19.43-21.54-10.25-12.33-17.06-27.15-19.76-42.96,26.38-19.88,53.88-38.22,82.37-54.95,14.21-8.33,28.75-16.21,43.74-23.31,7.22-3.44,14.43-6.77,22.2-9.88,3.33-1.44,20.98-5.99,22.2-8.77-5.3,13.54-3.02,28.88,5.99,40.29-1.33-10.85-.58-21.85,2.22-32.41,2.89-10.66,11.43-18.86,22.2-21.31-11.69,28.32-10.19,60.37,4.11,87.47-3.12-18.33-3.82-36.99-2.11-55.5.4-11.42,3.72-22.54,9.66-32.3,6.17-9.93,17.81-15.05,29.31-12.88-23.8,45.11-26.17,98.5-6.44,145.53-5.88-44.4-9.32-92.69,11.1-133.21,2.77-6.46,7.03-12.16,12.43-16.65,5.24-3.41,11.08-5.78,17.21-6.99-18.73,29.14-28.67,63.05-28.64,97.68-.28,100.85,81.25,182.83,182.1,183.11,100.85.28,182.83-81.25,183.11-182.1.1-35.1-9.92-69.48-28.86-99.03,6.23,1.29,12.15,3.78,17.43,7.33,5.7,4.56,10.17,10.47,12.99,17.21,19.87,40.63,16.54,88.8,11.1,133.21,19.73-47.03,17.36-100.42-6.44-145.53,11.49-2.17,23.13,2.94,29.31,12.88,5.99,9.74,9.32,20.88,9.66,32.3,1.72,18.51,1.01,37.17-2.11,55.5,14.33-27.08,15.88-59.14,4.22-87.47,10.77,2.45,19.31,10.65,22.2,21.31,2.76,10.57,3.55,21.56,2.33,32.41,8.99-11.43,11.23-26.77,5.88-40.29,43.31,15.91,84.36,37.4,122.11,63.94-20.31,34.76-48.39,64.36-82.03,86.47,37.58-18.05,69.17-46.53,91.02-82.03l22.2,16.1c-25.22,45.16-61.32,83.32-105.01,111.01-43.53,27.61-89.27,51.56-136.76,71.6,101.32-28.34,189.82-90.65,250.65-176.5l7.66,5.88c-2.66,15.78-9.48,30.57-19.76,42.85ZM336.01,277.62c42.31,33.43,91,57.86,143.09,71.82-50.25-20.96-97.44-48.59-140.31-82.14-28.34-21.54-54.38-45.94-77.7-72.82,18.63,32.84,44.2,61.21,74.93,83.14ZM583.33,128.54c.99.61,2.29.31,2.9-.68.2-.33.31-.71.32-1.09.05-.55.05-1.11,0-1.67-1.78-.78-2.44-.78-3,0-.46.23-.82.62-1,1.11-.16.86.14,1.74.78,2.33ZM581.33,125.32c.59-.42.99-1.06,1.11-1.78.16-.73.16-1.49,0-2.22.16-.35.16-.76,0-1.11-1.04-.37-2.18-.37-3.22,0-.67.1-1.24.51-1.55,1.11-.62,1.31-.35,2.86.67,3.89.9.59,2.06.64,3,.11ZM522.39,82.03c1.15-.03,2.12-.87,2.33-2,.05-.78-.14-1.56-.56-2.22-.44-.53-.96-.98-1.55-1.33-2.22,0-2.78,1-3.11,1.67-.28.52-.28,1.14,0,1.67.27,1.36,1.51,2.3,2.89,2.22ZM549.48,79.36c-.22.46-.22.99,0,1.44.02.53.21,1.04.56,1.44h2.66c.14-.36.14-.75,0-1.11.1-.99-.5-1.91-1.44-2.22-.63-.19-1.31-.02-1.78.44ZM549.14,76.59c-.38-.46-.88-.8-1.44-1h-1.78c-1.22,1.55-1.33,2.22-1.22,2.89.08.53.41.98.89,1.22.93.67,2.18.67,3.11,0,.93-.77,1.12-2.11.44-3.11ZM540.6,63.82h1.78c.22,0,0-2,0-2.33-.44-.28-1-.28-1.44,0-.67,1.78-.56,2.11-.33,2.33ZM500.52,120.43c-1.67,0-2.11.89-2.33,1.44-.22.42-.22.91,0,1.33.43.93,1.42,1.48,2.44,1.33.86-.13,1.53-.81,1.67-1.67.13-.47.13-.97,0-1.44l-1.78-1ZM488.42,120.1h-1v2c0,.33,2.11,0,2.44-.67.25-.58,0-1.26-.56-1.55-.31,0-.62.07-.89.22ZM483.76,149.96c-1.26.44-2.07,1.66-2,3,.18.78.61,1.48,1.22,2l2.11,1.11c.4.11.82.11,1.22,0,.86-.81,1.48-1.85,1.78-3,.23-.65.23-1.35,0-2-1.05-1.28-2.8-1.73-4.33-1.11ZM578,139.75c-.53-.93-1.68-1.31-2.66-.89-.56.23-1,.67-1.22,1.22-.15.58-.15,1.19,0,1.78,1.33,1.55,2,1.78,2.78,1.78.53.02,1.03-.23,1.33-.67.59-1.02.5-2.29-.22-3.22ZM572.23,146.52c1.11-.27,1.86-1.3,1.78-2.44-.07-.68-.38-1.31-.89-1.78-.55-.4-1.15-.73-1.78-1-1.78-.56-2.66,0-3,0-.2.34-.2.77,0,1.11-.11.4-.11.82,0,1.22,1.22,2.66,2.66,3.22,3.89,2.89ZM493.2,157.06c-2.11,0-2.66,1.11-2.89,1.78-.22.53-.22,1.13,0,1.67.57,1.11,1.75,1.76,3,1.67,1.1-.14,1.97-1.01,2.11-2.11,0-.65-.24-1.28-.67-1.78-.44-.5-.96-.92-1.55-1.22ZM514.51,177.71c1.16-.45,1.85-1.65,1.67-2.89-.04-1.06-.83-1.95-1.89-2.11-.65,0-1.28.24-1.78.67-.52.37-.94.87-1.22,1.44,0,2,1,2.55,1.67,2.89.49.22,1.06.22,1.55,0ZM487.2,181.04c.77.16,1.56.16,2.33,0,.61,0,1.19-.28,1.55-.78.76-1.1.76-2.56,0-3.66-.65-.99-1.89-1.4-3-1-.63.32-1.11.88-1.33,1.55-.1.7-.1,1.41,0,2.11-.12.32-.12.68,0,1l.44.78ZM562.24,182.15c.35.16.76.16,1.11,0,.89-.65,1.58-1.53,2-2.55.28-.56.28-1.22,0-1.78-.67-1.3-2.13-1.98-3.55-1.67-1.19.21-2.07,1.23-2.11,2.44.02.74.3,1.44.78,2,.5.61,1.1,1.14,1.78,1.55ZM566.13,180.93c.36.15.75.15,1.11,0,.89.02,1.68-.58,1.89-1.44.24-.74-.03-1.55-.67-2-.46-.22-.99-.22-1.44,0l-1.22.56c.33,2,.33,2.55.33,2.89ZM575.56,196.47c-.67,2.11,0,2.33,0,2.33,0,0,1.44-1.11,1.22-1.67-.16-.52-.7-.81-1.22-.67ZM606.53,111.89c.73-.38,1.14-1.19,1-2-.13-.48-.45-.88-.89-1.11-.44-.1-.89-.1-1.33,0-1.44.89-1.67,1.33-1.67,1.89-.18.39-.18.83,0,1.22.85.67,2.04.67,2.89,0ZM598.76,111.11c.56.43,1.33.43,1.89,0,.17-.39.17-.83,0-1.22.05-.44.05-.89,0-1.33h-2.33c-.14.32-.14.68,0,1-.11.56.06,1.14.44,1.55ZM559.36,121.1c.43.17.9.17,1.33,0,.93-.59,1.38-1.71,1.11-2.78-.22-.91-1.07-1.52-2-1.44-.55.04-1.06.27-1.44.67-.37.43-.67.92-.89,1.44.78,1.55,1.22,1.89,1.89,2.11ZM592.55,63.15c.44.6,1.14.97,1.89,1,.58.15,1.19.15,1.78,0-.08.48-.08.97,0,1.44.34,1.45,1.53,2.54,3,2.78,1.26.17,2.47-.57,2.89-1.78.27-.71.27-1.51,0-2.22-.34-.66-.79-1.26-1.33-1.78,0-.67-.54-1.22-1.22-1.23-.04,0-.08,0-.12,0,0-1.22-.89-2.89-2.11-3.55-.83-.27-1.72-.27-2.55,0-.86.26-1.68.63-2.44,1.11-.4.22-.72.57-.89,1,.11,1.15.49,2.25,1.11,3.22ZM639.61,70.37c0,1.67.78,1.78,1.11,1.78s1.22-1.44.89-1.89c-.3-.43-.82-.65-1.33-.56-.27.16-.5.39-.67.67ZM636.95,66.71c1.11-.89,1.33-1.33,1.33-1.78s-1.89-1.67-2.55-1.22c-.64.34-.96,1.08-.78,1.78.16.37.43.68.78.89l1.22.33ZM640.39,59.82c1.11-.67,1.33-1,1.33-1.44s-1.33-1.67-2-1.44c-.62.2-1.03.79-1,1.44.89,1.11,1.22,1.33,1.67,1.44ZM631.4,60.27h1.33c.67-1.22.67-1.67,0-2s-2.11-.78-2.55,0c-.44.47-.44,1.2,0,1.67.33.29.78.42,1.22.33ZM662.04,70.59c.48-.66.48-1.56,0-2.22-.29-.45-.72-.8-1.22-1h-1.55c-1.22,1.33-1.33,2-1.22,2.55.08.44.32.83.67,1.11,1.01.8,2.47.63,3.28-.37.02-.02.04-.05.05-.07ZM676.24,68.93c.6.28,1.29.28,1.89,0,1.35-.69,2.1-2.16,1.89-3.66-.21-.83-.78-1.52-1.55-1.89h-3.11c-.6.49-1.09,1.09-1.44,1.78-.17.39-.17.83,0,1.22.55,1.03,1.36,1.91,2.33,2.55ZM695.11,112.88c-1.03.17-1.79,1.06-1.78,2.11.04.63.32,1.23.78,1.67.38.46.88.8,1.44,1,2-.78,2.44-1.33,2.66-2,.17-.5.17-1.05,0-1.55-.62-1.09-1.91-1.59-3.11-1.22ZM777.04,86.8s.67,0,1-.89c1.2-.06,2.16-1.02,2.22-2.22-.03-.57-.31-1.11-.78-1.44-1-1.11,0-1,.89-1.22.67-.15,1.27-.55,1.67-1.11.5-1.05.5-2.28,0-3.33.36.14.75.14,1.11,0,.37-.45.37-1.1,0-1.55h-5.11c-.65.45-1.13,1.12-1.33,1.89-.16.84-.16,1.71,0,2.55-.15.39-.15.83,0,1.22h-.67c-.66-.04-1.31.2-1.78.67-.93,1.25-.93,2.96,0,4.22.64.88,1.7,1.35,2.78,1.22ZM764.05,68.82c.76.02,1.46-.42,1.78-1.11.09-.33.13-.66.11-1l-.89-1c-1.55,0-2,0-2.33.78-.16.35-.16.76,0,1.11.24.59.73,1.03,1.33,1.22ZM755.61,62.27c-1.37-.35-2.81.23-3.55,1.44-.22.69-.22,1.42,0,2.11-.9-.47-1.98-.47-2.89,0-.51.56-.92,1.2-1.22,1.89v1.22c.71.88,1.62,1.56,2.66,2,.61.23,1.28.23,1.89,0,.45-.26,1-.26,1.44,0,.42.22.91.22,1.33,0,.47-.15.89-.42,1.22-.78,0-2.11,1-2.44,1.55-2.89.51-.49.79-1.18.78-1.89-.31-1.61-1.6-2.86-3.22-3.11ZM772.49,89.46c.35.16.76.16,1.11,0,.33-.12.64-.31.89-.56,0-1.22,0-1.55-.67-1.89s-2.11.56-2.22,1.33c.06.51.4.94.89,1.11ZM784.59,105.89c.06-.4.06-.82,0-1.22-1.44-.89-2.33-.56-2.66,0-.41.52-.41,1.25,0,1.78.36.11.75.11,1.11,0h1.11c.44-.22.44-.33.44-.56ZM724.09,142.41c-1.55.89-1.78,1.44-1.89,2.11-.11.4-.11.82,0,1.22.7.77,1.8,1.03,2.78.67.82-.35,1.29-1.23,1.11-2.11-.08-.53-.41-.98-.89-1.22-.32-.29-.7-.52-1.11-.67ZM710.43,128.2c-.71.2-1.31.68-1.67,1.33-.42.63-.69,1.36-.78,2.11-.16.35-.16.76,0,1.11.84.75,1.88,1.25,3,1.44.66.01,1.29-.22,1.78-.67,1.05-1.01,1.32-2.58.67-3.89-.54-1.12-1.78-1.72-3-1.44ZM737.85,153.29c-.44-.28-1-.28-1.44,0-.32.34-.32.88,0,1.22,2.11-.67,2.11-1,1.89-1.22-.14-.04-.3-.04-.44,0ZM730.97,159.84c-.81.72-1.08,1.88-.67,2.89.36.58.91,1.01,1.55,1.22.62.1,1.26.1,1.89,0,1.55-1.67,1.67-2.44,1.55-3.11-.09-.58-.41-1.1-.89-1.44-1.12-.6-2.51-.42-3.44.44ZM778.15,154.51c-.84-.16-1.71-.16-2.55,0-.59.15-1.08.56-1.33,1.11-.62,1.31-.35,2.86.67,3.89,1,.71,2.33.71,3.33,0,.53-.52.92-1.17,1.11-1.89.11-.74.11-1.48,0-2.22.09-.36.09-.75,0-1.11l-1.22.22ZM784.47,159.17c-.54-.18-1.12-.18-1.67,0-.89,1.22-.67,2.11,0,2.55.51.32,1.16.32,1.67,0,.22-2.22.22-2.33,0-2.55ZM791.36,156.18c-.95-.23-1.94-.23-2.89,0-.51.28-.88.76-1,1.33-.29,1.25.25,2.54,1.33,3.22,1.09.68,2.53.35,3.21-.74.27-.44.39-.96.34-1.48.11-.62.11-1.26,0-1.89-.28-.25-.63-.4-1-.44ZM800.01,157.84c-1.33,0-1.55.89-1.67,1.33s1.33,2,2.11,1.78c.69-.11,1.18-.74,1.11-1.44.14-.36.14-.75,0-1.11l-1.55-.56ZM777.04,180.6c.62.15,1.27.15,1.89,0,1-1.55.67-2.55,0-3-.7-.49-1.67-.32-2.16.39-.19.28-.29.61-.28.95-.05.44-.05.89,0,1.33.09.22.32.35.56.33ZM783.81,179.04c.66.01,1.29-.22,1.78-.67.47-.47.88-.99,1.22-1.55-.67-2.11-1.22-2.66-1.89-2.89-.54-.16-1.12-.16-1.67,0-1.1.62-1.72,1.85-1.55,3.11.22,1.04,1.06,1.84,2.11,2ZM794.13,181.26c.39.15.83.15,1.22,0,.35-.24.65-.54.89-.89,0-1.44,0-1.78-.89-2s-2.44.78-2.44,1.67c.15.6.62,1.07,1.22,1.22ZM782.7,205.8c.73.16,1.49.16,2.22,0,0,0,.78,0,.89-.78.47-.87.24-1.96-.56-2.55-.66-.48-1.56-.48-2.22,0-.35.37-.58.83-.67,1.33-.06.48-.06.96,0,1.44,0,0,.11.44.33.56ZM790.25,193.14c.78-.24,1.32-.96,1.33-1.78-.11-.46-.34-.88-.67-1.22l-1.22-.67c-1.44.67-1.78,1.11-1.89,1.55-.17.39-.17.83,0,1.22.56.76,1.52,1.12,2.44.89ZM809.01,190.03c-.7-.12-1.41-.12-2.11,0-.52.03-1,.27-1.33.67-.67,1.01-.67,2.32,0,3.33.64.79,1.7,1.1,2.66.78.57-.32,1-.83,1.22-1.44.12-.59.12-1.19,0-1.78,0-1.33-.22-1.44-.44-1.55ZM720.31,214.34c-.89.78-1,1.11-1,1.55s1.55,1.22,2.11.89c.33-.37.38-.91.11-1.33-.33-.45-.74-.82-1.22-1.11ZM711.43,222.11c1.44,0,2-.67,2-1.44-.03-.58-.43-1.08-1-1.22-2,1.89-1.33,2.66-1,2.66ZM712.43,223.56c-.74.14-1.45.4-2.11.78-.36.12-.67.35-.89.67.05,1.13.36,2.23.89,3.22.39.47.95.79,1.55.89,1.41.21,2.79-.57,3.33-1.89.53-1.06.25-2.35-.67-3.11-.62-.42-1.36-.61-2.11-.56ZM710.43,222.89c-.05-.89-.28-1.76-.67-2.55-.31-.58-.82-1.01-1.44-1.22-1.46-.3-2.95.32-3.77,1.55-.76,1.02-.76,2.42,0,3.44.57.53,1.33.81,2.11.78.77.11,1.56.11,2.33,0,0,0,.78,0,1-.67.28-.39.43-.85.44-1.33ZM759.5,275.4c-1.02.3-1.71,1.26-1.67,2.33.1.61.41,1.16.89,1.55.47.4,1,.73,1.55,1,2-.89,2.33-1.55,2.55-2.22.17-.5.17-1.05,0-1.55-.75-1.05-2.1-1.5-3.33-1.11ZM724.86,272.84c-1.1.77-1.37,2.3-.6,3.4.31.44.75.77,1.27.93.7.12,1.41.12,2.11,0,1.67-1.67,1.78-2.44,1.67-3.22,0-.61-.28-1.19-.78-1.55-1.19-.64-2.66-.46-3.66.44ZM752.84,290.83c1.89.78,2.33,0,2.33,0-.01-.49-.32-.93-.78-1.11q-1.67,1-1.55,1.11ZM761.38,267.07c-.67.78-.78,1.11-.78,1.44s1.55,1,2,.56c.32-.34.32-.88,0-1.22-.55-.78-.89-.78-1.22-.78ZM768.05,267.29c-.8-.28-1.68.05-2.11.78-.48.58-.48,1.42,0,2,.36.1.75.1,1.11,0h1.33c.67-1.33,0-1.89,0-2.33-.08-.17-.19-.32-.33-.44ZM720.76,304.37c.68-.18,1.32-.48,1.89-.89.34-.21.61-.52.78-.89-.2-1.09-.65-2.12-1.33-3-.45-.43-1.05-.66-1.67-.67-1.41,0-2.64.96-3,2.33-.34,1.13.12,2.36,1.11,3,.7.32,1.49.36,2.22.11ZM722.2,306.81c-1.78-.56-2.33,0-2.44.78-.14.58.2,1.17.78,1.33,1.89.56,2.55.89,3.22.56.33-.17.61-.44.78-.78v-1.11c0-.33-1.33-1.11-1.78-1.11-.21.07-.39.19-.55.33ZM708.55,312.36c1.23.04,2.25-.91,2.3-2.14.02-.61-.21-1.2-.63-1.64-.36-.52-.81-.97-1.33-1.33-2.22,0-2.78.89-3.11,1.55-.22.53-.22,1.13,0,1.67.48,1.12,1.56,1.85,2.78,1.89ZM654.93,247.2c-.35-.16-.76-.16-1.11,0-.8.43-1.21,1.34-1,2.22.14.71.72,1.25,1.44,1.33.5,0,.98-.2,1.33-.56.34-.3.61-.68.78-1.11-.11-1.33-.56-1.67-1.44-1.89ZM656.71,243.2c.81-.63,1.09-1.73.67-2.66-.29-.57-.82-.98-1.44-1.11-.59-.11-1.19-.11-1.78,0-1.44,1.55-1.67,2.22-1.55,2.89.07.53.35,1.01.78,1.33,1.09.58,2.43.4,3.33-.44ZM673.14,233.21c-1.23.2-2.39.73-3.33,1.55-.51.49-.79,1.18-.78,1.89.09,1.63,1.2,3.01,2.78,3.44,1.34.38,2.77-.22,3.44-1.44.28-.79.28-1.65,0-2.44-.25-.82-.67-1.57-1.22-2.22,0,0-.44-.78-.89-.78ZM656.37,323.91c-.12-.59-.35-1.15-.67-1.67h-3.11c-.39.3-.67.74-.78,1.22-.07,1.18.66,2.27,1.78,2.66.9.36,1.94.09,2.55-.67.24-.48.31-1.03.22-1.55ZM660.37,311.7c-.58-.16-1.19-.16-1.78,0-.47,0-.92.19-1.22.56-.55.84-.55,1.93,0,2.78.44.78,1.39,1.12,2.22.78.5-.21.9-.61,1.11-1.11.04-.52.04-1.04,0-1.55,0-1.33-.11-1.44-.33-1.44ZM611.97,322.02c.7.19,1.44-.14,1.78-.78.37-.45.37-1.1,0-1.55-2.55,1-2.44,1.44-2.22,1.78s.11.56.44.56ZM615.64,323.35c-.52-.28-1.14-.28-1.67,0-.49.17-.91.48-1.22.89-1.25.27-2.14,1.38-2.11,2.66.12.71.52,1.35,1.11,1.78.57.41,1.21.71,1.89.89,1.09-.66,2.09-1.44,3-2.33.22-3-.33-3.66-1-3.89ZM579.56,307.81c-.38-.2-.84-.2-1.22,0-.35.28-.65.62-.89,1,0,1.33.78,1.78,1.22,1.89s2.33-1.11,2.22-2c-.25-.52-.76-.86-1.33-.89ZM588.33,304.81c-.95.25-1.51,1.22-1.26,2.17.08.31.25.6.49.83.33.39.75.7,1.22.89,1.55-.67,1.89-1.11,2.11-1.55.18-.39.18-.83,0-1.22-.48-.92-1.55-1.39-2.55-1.11ZM595.54,222.11l-1.55.56c0,1.44,0,2.22.56,2.44.49.39,1.18.39,1.67,0-.33-3-.44-3-.67-3ZM594.21,220.12c.57.21,1.2.21,1.78,0,.53-.35,1.01-.76,1.44-1.22,0-2.11,0-2.66-1.22-3-.46-.2-.98-.2-1.44,0-1.17.32-2.01,1.34-2.11,2.55.17.8.77,1.44,1.55,1.67ZM521.72,260.41l-1.55.78v3c.32.34.76.54,1.22.56,1.13.04,2.14-.69,2.44-1.78.24-.89-.12-1.83-.89-2.33-.38-.19-.8-.27-1.22-.22ZM526.83,258.3c-1.11,0-1.33,0-1.44.89s.89,1.78,1.55,1.67c.53-.05.95-.47,1-1-.56-1.22-.78-1.33-1.11-1.55ZM545.81,262.08c-.46.11-.88.34-1.22.67v2.55c.36.15.75.15,1.11,0,.94-.02,1.75-.65,2-1.55.22-.76-.1-1.58-.78-2-.39,0-.78.12-1.11.33ZM540.93,272.84c.59-.79.59-1.87,0-2.66-.34-.55-.91-.92-1.55-1-.58-.17-1.2-.17-1.78,0-1.33,1.55-1.44,2.33-1.22,3,.08.53.41.98.89,1.22,1.18.78,2.76.54,3.66-.56ZM503.08,214.45c-.81.16-1.59.42-2.33.78,0,0-.78,0-.89.89,0,1.22.34,2.41,1,3.44.43.58,1.07.98,1.78,1.11,1.6.11,3.09-.77,3.77-2.22.48-1.28.08-2.72-1-3.55-.66-.52-1.53-.69-2.33-.44ZM490.75,211.01c-1.44.78-1.78,1.22-1.89,1.78-.11.4-.11.82,0,1.22.6.7,1.55,1,2.44.78.76-.25,1.26-.98,1.22-1.78-.02-.49-.26-.94-.67-1.22l-1.11-.78ZM579.23,273.51c.1-.66-.21-1.32-.78-1.67-.39-.17-.83-.17-1.22,0l-1,.56c0,1.44,0,1.78.56,2.11s2.33-.22,2.44-1ZM586,270.29c.6-.21.98-.81.89-1.44-.03-.43-.28-.81-.67-1h-1c-1.22.67-1.44,1.11-1.44,1.55s1.55,1.22,2.22.89ZM633.84,276.62c0-.79-.32-1.55-.89-2.11-.55-.54-1.19-.99-1.89-1.33-.39-.17-.83-.17-1.22,0-.94.67-1.67,1.6-2.11,2.66-.28.64-.28,1.36,0,2,.71,1.31,2.21,1.99,3.66,1.67,1.44-.17,2.51-1.43,2.44-2.89ZM668.7,293.27c-.69-.21-1.42-.21-2.11,0l-1.67,1.33c-.12.32-.12.68,0,1,.41,1,1.05,1.87,1.89,2.55.57.2,1.2.2,1.78,0,1.33-.36,2.31-1.51,2.44-2.89-.28-1.09-1.21-1.89-2.33-2ZM692.67,244.31c-.39.14-.69.48-.78.89-.06.4-.06.82,0,1.22,1,1,1.44,1.11,1.89,1.11s1.44-2,1-2.66c-.35-.72-1.22-1.01-1.93-.66-.06.03-.12.06-.18.1ZM757.72,235.88c1.11-1.78,1.11-2.44.89-3.11-.18-.49-.54-.88-1-1.11-1.1-.43-2.34-.11-3.11.78-.56.8-.56,1.86,0,2.66.38.47.95.75,1.55.78.55.1,1.11.1,1.67,0ZM749.17,242.87h-1.44c-1,1.22-1,1.78-.89,2.33.05.39.3.73.67.89.74.49,1.7.49,2.44,0,.5-.61.5-1.5,0-2.11-.12-.45-.4-.84-.78-1.11ZM747.07,226.67c-1.2-.34-2.47-.34-3.66,0-.69.27-1.22.84-1.44,1.55-.91,1.81-.19,4.01,1.62,4.92.05.03.1.05.16.07,1.08.83,2.58.83,3.66,0,.6-.63.95-1.46,1-2.33.05-.81.05-1.63,0-2.44,0,0-1-1.55-1.33-1.78ZM746.29,190.81c.2.34.46.65.78.89,1.22,0,1.67,0,1.89-.78s-.67-2.11-1.44-2.11c-.6-.08-1.17.3-1.33.89-.08.37-.04.76.11,1.11ZM741.74,185.37c.61.22,1.28.22,1.89,0,1.45-.35,2.49-1.62,2.55-3.11.17-1.32-.62-2.58-1.89-3-.71-.27-1.51-.27-2.22,0-.72.35-1.36.84-1.89,1.44-.29.31-.49.69-.56,1.11.31,1.38,1.05,2.62,2.11,3.55ZM786.25,125.1c-.35-.16-.76-.16-1.11,0-.82.51-1.19,1.52-.89,2.44.24.78.96,1.32,1.78,1.33.51-.12.97-.39,1.33-.78.33-.38.56-.84.67-1.33-.67-1.22-1.22-1.55-1.78-1.67ZM778.59,127.65c-1-.2-2,.3-2.44,1.22-.54.68-.54,1.65,0,2.33.46.2.98.2,1.44,0,.52.06,1.04.06,1.55,0v-2.78c-.12-.3-.31-.57-.55-.78ZM711.88,67.71c.78,2.11,1.11,2.11,1.44,1.89s0-1.78,0-2.11c-.43-.34-1.06-.27-1.4.17-.01.02-.03.04-.04.05ZM718.43,79.81c-.48.13-.88.45-1.11.89-.29.37-.51.78-.67,1.22.89,1.44,1.33,1.67,1.89,1.78.36.13.75.13,1.11,0,.74-.58,1.01-1.57.67-2.44-.24-.84-1.01-1.43-1.89-1.44ZM739.85,121.54c-.61-.23-1.28-.23-1.89,0-1.16.93-1.64,2.46-1.22,3.89.36,1.22,1.5,2.05,2.78,2,.8-.14,1.51-.58,2-1.22.46-.61.83-1.29,1.11-2v-1.11c-.78-.74-1.74-1.27-2.78-1.55ZM735.52,115.99c.7.12,1.41.12,2.11,0,.32.12.68.12,1,0,.57-.93.84-2.02.78-3.11-.12-.6-.43-1.15-.89-1.55-1.13-.81-2.65-.81-3.77,0-.91.7-1.27,1.91-.89,3,.35.73.94,1.32,1.67,1.67ZM570.23,82.58c.51.15,1.05.15,1.55,0,.43-.39.8-.84,1.11-1.33,0-1.78-1-2.22-1.67-2.44-.42-.22-.91-.22-1.33,0-.97.46-1.55,1.48-1.44,2.55.32.7,1.01,1.17,1.78,1.22ZM616.3,91.68c1.35,0,2.54-.91,2.89-2.22.16-.82-.04-1.67-.56-2.33-.4-.72-.97-1.33-1.67-1.78-.36-.12-.75-.12-1.11,0-1.12.52-2.07,1.32-2.78,2.33-.32.63-.32,1.37,0,2,.6,1.23,1.85,2.01,3.22,2ZM523.72,102.67h-1.67c-.39.14-.69.48-.78.89-.32.9,0,1.9.78,2.44.63.57,1.59.57,2.22,0,.41-.36.62-.9.56-1.44.11-.47.11-.97,0-1.44-.67-.44-.89-.44-1.11-.44ZM530.94,139.41c-1.34-.52-2.86-.11-3.77,1-.78.97-.78,2.36,0,3.33.49.55,1.16.9,1.89,1h2.22c.54.21,1.15.08,1.55-.33.3-1.09.3-2.24,0-3.33-.22-.89-.97-1.55-1.89-1.67ZM517.62,196.03c.47.83,1.38,1.3,2.33,1.22.86-.05,1.56-.7,1.67-1.55.11-.47.11-.97,0-1.44l-1.22-1c-1.67.56-2.11.89-2.33,1.44-.26.4-.42.86-.44,1.33ZM518.17,193.7c.34-.62.34-1.37,0-2-.26-.65-.64-1.25-1.11-1.78-2.33,0-3.11,0-3.55,1-.2.5-.2,1.05,0,1.55.17,1.35,1.21,2.43,2.55,2.66.92-.05,1.73-.6,2.11-1.44ZM566.13,213.23c-.39.57-.39,1.32,0,1.89.23.42.64.7,1.11.78h1.22c1-1.11,1.11-1.67,1-2.11s-2.55-1.22-3.33-.56ZM557.36,221.34c-.77-.16-1.56-.16-2.33,0-.58.09-1.1.41-1.44.89-.83,1.08-.83,2.58,0,3.66.69.94,1.94,1.27,3,.78.6-.33,1.04-.89,1.22-1.55.17-.66.17-1.34,0-2,.11-1-.22-1.67-.44-1.78ZM555.03,216.12c.07-.66-.18-1.32-.67-1.78-.48-.5-1.04-.92-1.67-1.22-2.22.67-2.66,1.33-3,2-.23.53-.23,1.13,0,1.67.61,1.17,1.92,1.8,3.22,1.55,1.18-.06,2.11-1.04,2.11-2.22ZM513.29,260.08h-1.11c-.83.36-1.36,1.2-1.33,2.11,0,.78.56,1.44,1.33,1.55.43.15.9.15,1.33,0,.35-.28.65-.62.89-1-.22-2-.67-2.33-1.11-2.66ZM510.62,253.08c.5-.34.86-.85,1-1.44.14-1.19-.42-2.36-1.44-3v-1.67c-.33-.08-.67-.08-1,0-1.22,0-1.44.89-1.55,1.33-.54.99-.85,2.09-.89,3.22.12.65.3,1.28.56,1.89,1.89.22,2.66.11,3.33-.33ZM542.7,290.16c-.57-.23-1.21-.23-1.78,0-1.28.58-2,1.95-1.78,3.33.19,1.18,1.14,2.09,2.33,2.22.7-.02,1.37-.3,1.89-.78.54-.48.99-1.04,1.33-1.67.16-.35.16-.76,0-1.11-.53-.79-1.21-1.47-2-2ZM573.01,308.48c-.3-.75-1.1-1.17-1.89-1-.36-.1-.75-.1-1.11,0-1.3.09-2.41.97-2.78,2.22-.31.75-.31,1.59,0,2.33.4.66.93,1.22,1.55,1.67.32.34.76.54,1.22.56,1.09-.51,2.02-1.32,2.66-2.33.27-.6.27-1.29,0-1.89.33-1.22.33-1.44.33-1.55ZM622.85,329.23c-1,1.67-.78,2.11,0,2.33s2,0,2.22-.89c.15-.55-.13-1.12-.67-1.33-.31-.45-.94-.57-1.39-.25-.06.04-.11.09-.16.14ZM673.14,322.02c-.48.13-.94.36-1.33.67v2.55c.32.13.68.13,1,0,.96-.04,1.79-.65,2.11-1.55.22-.76-.1-1.58-.78-2-.35.03-.7.14-1,.33ZM740.29,291.71c-1.05-.1-2.02.55-2.33,1.55-.28.56-.28,1.22,0,1.78.27.55.65,1.04,1.11,1.44,2.11,0,2.66-.56,3.11-1.11.21-.5.21-1.06,0-1.55-.24-.97-.94-1.77-1.89-2.11ZM736.08,292.82c-.82-.1-1.65.1-2.33.56-.67.46-1.27,1.03-1.78,1.67-.51.14-.92.51-1.11,1-.05.41-.05.82,0,1.22,1,1,1.44,1.11,2,1,.34.2.64.47.89.78.68.27,1.43.27,2.11,0,1.52-.45,2.57-1.85,2.55-3.44-.1-1.33-1.04-2.45-2.33-2.78ZM750.73,291.83c-.78,0-.89-.78-1.22-1.11-.5-.51-1.17-.83-1.89-.89l-2.22-.78c-1.13-.35-2.35.17-2.89,1.22-.27.64-.27,1.36,0,2,.27.66.6,1.3,1,1.89,0,0,0,.67.89.67,1.26.42,2.62.42,3.89,0,.36.46.82.84,1.33,1.11.43.16.9.16,1.33,0,.98-.39,1.57-1.4,1.44-2.44-.05-.9-.77-1.61-1.67-1.67ZM783.92,242.32c-.44-.11-.89-.11-1.33,0-1,1-1.11,1.44-1,1.89s2.11,1.44,2.78.89c.37-.53.37-1.24,0-1.78-.01-.38-.17-.74-.44-1ZM780.7,247.76c-.53-.23-1.13-.23-1.67,0-1.06.75-1.55,2.07-1.22,3.33.37,1.04,1.34,1.75,2.44,1.78.69-.11,1.33-.46,1.78-1,.42-.54.76-1.14,1-1.78-1-1.67-1.55-2.11-2.33-2.33ZM793.8,232.22c-.47-.11-.97-.11-1.44,0-.38.08-.7.33-.89.67-.5.7-.5,1.63,0,2.33.58.48,1.42.48,2,0,.38-.24.63-.66.67-1.11.05-.44.05-.89,0-1.33,0-.55-.11-.55-.33-.55ZM793.47,227c-.87.74-1.14,1.96-.67,3,.4.58.99,1.02,1.67,1.22.66.12,1.34.12,2,0,1.55-1.67,1.67-2.55,1.55-3.22-.09-.58-.41-1.1-.89-1.44-1.18-.71-2.69-.53-3.66.44ZM804.57,185.04c.5-.08.96-.32,1.33-.67-.06.63-.06,1.26,0,1.89-.11.4-.11.82,0,1.22.98.56,2.09.87,3.22.89.67,0,1.32-.28,1.78-.78.89-1.18.89-2.81,0-4-.63-1.14-1.99-1.66-3.22-1.22-.38.25-.69.59-.89,1,.5-.86.5-1.92,0-2.78-.47-.57-1.03-1.06-1.67-1.44-.36-.09-.75-.09-1.11,0-1,.56-1.81,1.41-2.33,2.44-.28.56-.28,1.22,0,1.78.61,1.01,1.7,1.64,2.89,1.67ZM802.9,136.86c.05.6.33,1.16.78,1.55.45.4.98.7,1.55.89,1.89-.78,2.22-1.33,2.44-2,.18-.46.18-.98,0-1.44-.64-.99-1.86-1.45-3-1.11-1.03.17-1.79,1.06-1.78,2.11ZM802.57,147.41c-.5,1.38-.1,2.92,1,3.89.97.78,2.36.78,3.33,0,.55-.49.9-1.16,1-1.89.11-.77.11-1.56,0-2.33.1-.33.1-.67,0-1-1.08-.34-2.25-.34-3.33,0-.88-.02-1.67.52-2,1.33ZM807.67,161.73c.78-1.67,0-2,0-2.22s-1.89,0-2,1c-.04.53.28,1.03.78,1.22h1.22ZM800.57,120.77c-.73.4-1.52.7-2.33.89-.78,1.22-.78,1.67,0,2.11s1.55,1,1.89.78c.7.84,1.83,1.19,2.89.89.92-.34,1.5-1.24,1.44-2.22-.11-.57-.43-1.08-.89-1.44-.45-.4-.98-.7-1.55-.89-.4-.35-.99-.39-1.44-.11ZM792.02,100.01c-1.67-1.44-1.89-1.22-2.11-.89s0,1.55,1.11,1.67c.46-.03.86-.33,1-.78ZM733.86,60.6c-.95.05-1.87.35-2.66.89-.44.36-.72.88-.78,1.44-.05,1.21.66,2.31,1.78,2.78.99.46,2.17.13,2.78-.78.22-.61.22-1.28,0-1.89-.16-.63-.43-1.23-.78-1.78-.05-.25-.16-.48-.33-.67ZM744.73,62.93c-.57-1.07-1.46-1.92-2.55-2.44-.64-.27-1.36-.27-2,0-1.43.62-2.29,2.11-2.11,3.66.09,1.35,1.1,2.46,2.44,2.66.82.07,1.62-.21,2.22-.78.63-.48,1.16-1.09,1.55-1.78.39-.32.56-.84.44-1.33ZM748.51,63.49c-.08-.72-.62-1.3-1.33-1.44-.61-.14-1.23.13-1.55.67-.11.36-.11.75,0,1.11-.04.33-.04.67,0,1h2c.59-.16.97-.73.89-1.33ZM745.18,66.71c-1,2.44-.67,2.66,0,2.78s1.78-1.22,1.55-1.89c-.07-.61-.62-1.05-1.23-.98-.11.01-.22.04-.33.09ZM795.57,106.56c-.89.72-1.55,1.68-1.89,2.78-1.03.77-1.96,1.67-2.78,2.66-.21.65-.21,1.35,0,2,.48,1.56,1.92,2.64,3.55,2.66.07.33.07.67,0,1,.78,2.11,1.44,2.66,2.11,2.89.53.23,1.13.23,1.67,0,1.17-.66,1.77-2.02,1.44-3.33-.17-1.14-1.18-1.96-2.33-1.89.5-.86.5-1.92,0-2.78,2.11,0,3-1.44,2.89-2.55-.05-.77-.41-1.49-1-2-.56-.47-1.2-.85-1.89-1.11-.41-.56-1.19-.7-1.78-.33ZM796.02,102.34c-.41.15-.78.38-1.11.67v2.11c0,.33,2.44,0,2.55-1.22.11-.69-.25-1.37-.89-1.67-.19,0-.38.05-.56.11ZM799.24,117.77c.34.7,1.13,1.07,1.89.89.45-.13.82-.46,1-.89.05-.44.05-.89,0-1.33-.89-1.22-1.33-1.44-1.89-1.44-.36-.11-.75-.11-1.11,0-.54.86-.5,1.96.11,2.78ZM689.01,68.37c.47.17.98.17,1.44,0,2.33-.78,3.44-1.67,3.55-2.78-.01-.72-.25-1.41-.67-2-.41-.55-.94-1.01-1.55-1.33-2.22,0-2.89,1.11-3.11,1.78-.58.67-1.07,1.42-1.44,2.22,1,1.55,1,1.89,1.78,2.11ZM693.12,68.15c.23.46.62.82,1.11,1,.48.06.96.06,1.44,0,1.11-1.22,1.33-1.78,1.22-2.33-.17-.08-.36-.12-.56-.11-.75-.57-1.8-.57-2.55,0-.42.36-.67.89-.67,1.44ZM671.8,62.16c.4.12.82.12,1.22,0,0-1.33,0-1.89-.56-2.11-.4-.26-.93-.26-1.33,0,.33,1.89.44,2,.67,2.11ZM627.4,61.16c.7.12,1.41.12,2.11,0,.3-.28.52-.62.67-1,.09-.89-.34-1.75-1.11-2.22-.64-.43-1.47-.43-2.11,0-.1.44-.1.89,0,1.33-.08.44-.08.89,0,1.33,0,0,.22.44.44.56ZM573.56,62.04c1.33,0,1.89,0,2.11-.89.11-.54-.17-1.09-.67-1.33-1.89,1.67-1.78,2-1.44,2.22ZM546.48,67.71c.64.27,1.36.27,2,0,1.48-.56,2.45-1.97,2.44-3.55.04-1.37-.89-2.57-2.22-2.89-.75-.27-1.58-.27-2.33,0-.64.5-1.24,1.05-1.78,1.67,0,0-.56.78,0,1.22.23,1.36.89,2.6,1.89,3.55ZM505.52,93.01c-.54-.42-.99-.95-1.33-1.55v-1c0-2,0-2.66-1.11-3-.46-.2-.98-.2-1.44,0-1.15.26-1.98,1.26-2,2.44-.03.82.4,1.59,1.11,2-.42.63-.65,1.36-.67,2.11,1.33,1.22,2,1.44,2.55,1.33s0,1.55,0,1.89c.75.98,2.07,1.34,3.22.89.95-.42,1.53-1.4,1.44-2.44-.16-.58-.51-1.09-1-1.44-.2-.44-.46-.85-.78-1.22ZM509.85,84.25c-.84-.33-1.79-.06-2.33.67-.22.49-.22,1.06,0,1.55-.06.48-.06.96,0,1.44h2.89c.34-.32.54-.76.56-1.22.15-.96-.29-1.92-1.11-2.44ZM512.07,80.8c-1.55,0-2.33,0-2.44,1-.1.66.21,1.32.78,1.67h1.11l1-.67c.11-1.33-.11-1.67-.44-2ZM492.09,108.56c-.9.09-1.63.77-1.78,1.67-.22.46-.22.99,0,1.44.35.43.76.8,1.22,1.11,1.78,0,2.22-.89,2.44-1.44.16-.43.16-.9,0-1.33-.34-.78-1.05-1.32-1.89-1.44ZM500.63,108c.42-.58.65-1.28.67-2-.19-1.63-1.39-2.97-3-3.33-1.38-.22-2.76.44-3.44,1.67-.28.79-.28,1.65,0,2.44.34.8.78,1.55,1.33,2.22.29.35.68.62,1.11.78,1.22-.35,2.36-.95,3.33-1.78ZM490.2,187.37c.48-.96.2-2.13-.67-2.78-.6-.27-1.29-.27-1.89,0-.62.12-1.22.35-1.78.67-.56,2.11,0,2.78,0,3.33.3.47.78.79,1.33.89,1.37.1,2.63-.78,3-2.11ZM485.87,181.37c-.34-1.03-.95-1.95-1.78-2.66-.53-.26-1.14-.26-1.67,0-1.37.3-2.42,1.39-2.66,2.78-.18,1.2.52,2.36,1.67,2.78.68.28,1.43.28,2.11,0,.66-.34,1.26-.79,1.78-1.33,0,0,.56-1.22.56-1.55ZM495.08,211.57c-.53.21-.82.78-.67,1.33h2.55c.11,0-1.33-1.89-1.89-1.33ZM490.87,199.91c.89-.56,1.26-1.68.89-2.66-.34-.58-.84-1.04-1.44-1.33-.63-.06-1.26-.06-1.89,0-1.55,1.55-1.78,2.22-1.67,3,.08.56.35,1.07.78,1.44,1.09.58,2.43.4,3.33-.44ZM513.4,258.75c.54-.7.81-1.56.78-2.44.11-.47.11-.97,0-1.44-1.89-1.44-2.89-1.89-3.89-1.55-.74.27-1.35.83-1.67,1.55-.34.7-.56,1.45-.67,2.22-.17.39-.17.83,0,1.22.97.62,2.07,1,3.22,1.11.81.19,1.65-.07,2.22-.67ZM557.8,303.92c-.54-.16-1.12-.16-1.67,0-.35-.16-.76-.16-1.11,0-.56.8-.56,1.86,0,2.66.53.66,1.44.89,2.22.56.44-.23.76-.63.89-1.11.05-.48.05-.96,0-1.44,0-.56-.22-.67-.33-.67ZM549.48,292.6c-1,0-1.22,1-1.33,1.33s1.33,1.78,2.11,1.44c.56-.2.92-.74.89-1.33-.89-1.11-1.22-1.33-1.67-1.44ZM560.8,297.93c-.75.15-1.3.79-1.33,1.55-.2.38-.2.84,0,1.22l1.11.89c1.55-.56,1.89-.89,2.11-1.44.18-.35.18-.76,0-1.11-.35-.71-1.09-1.15-1.89-1.11ZM607.31,322.8c-.51-.32-1.16-.32-1.67,0-.28.44-.28,1,0,1.44,2.33,0,2.33-.89,2.22-1.22-.15-.15-.35-.22-.56-.22ZM585,312.25c-.61.32-.97.98-.89,1.67.15.43.42.82.78,1.11h1.22c1.22-.78,1.44-1.22,1.55-1.78s-1.89-1.44-2.66-1ZM636.62,331.9c.41-.09.75-.38.89-.78.02-1.19-.25-2.37-.78-3.44.36-.36.66-.77.89-1.22.39-1.23-.12-2.56-1.22-3.22-.7-.34-1.52-.34-2.22,0-.75.22-1.46.56-2.11,1-.37.18-.64.5-.78.89.14.88.48,1.72,1,2.44-.45.28-.83.66-1.11,1.11-.39.73-.39,1.6,0,2.33-.28.56-.28,1.22,0,1.78.43.37,1.01.49,1.55.33,1.33-.29,2.63-.7,3.89-1.22ZM622.3,326.01c-.89-.78-1.33-.78-1.67-.78s-.89,1.78,0,2.33c.43.31,1.01.31,1.44,0,.22-.89.22-1.22.22-1.55ZM678.58,321.02c-1.89,0-2.44,0-2.78.89-.14.43-.14.9,0,1.33.23,1.07,1.13,1.88,2.22,2,.9.12,1.76-.38,2.11-1.22.22-.53.22-1.13,0-1.67-.4-.56-.93-1.02-1.55-1.33ZM656.26,327.35c0,.89-.67,1.33,0,1.67s1.67.67,2.11,0c.28-.44.28-1,0-1.44-.67-.24-1.4-.32-2.11-.22ZM695.78,325.24c.61.34,1.3.53,2,.56.56.02,1.09-.23,1.44-.67.7-.9.75-2.16.11-3.11-.49-.92-1.57-1.34-2.55-1-.56.23-1,.67-1.22,1.22-.29.56-.47,1.16-.56,1.78.33,1,.56,1.11.78,1.22ZM694.45,326.9c.53-.57.81-1.33.78-2.11-.13-.75-.32-1.49-.56-2.22,0,0,0-.78-.67-.89-1.1-.13-2.22.06-3.22.56-.58.31-1.01.82-1.22,1.44-.29,1.45.38,2.93,1.67,3.66,1.05.6,2.37.42,3.22-.44ZM773.82,266.52c-1.33,0-1.55,1.22-1.44,1.89.26.5.77.84,1.33.89.89-2.78.55-2.78.11-2.78ZM779.92,257.41c-1.4-.34-2.84.36-3.44,1.67-.53-.48-1.18-.79-1.89-.89-1.27-.05-2.42.77-2.78,2-.45,1.05-.08,2.27.89,2.89.65.22,1.35.22,2,0l1.78-.89c.6.26,1.07.73,1.33,1.33.29.35.68.62,1.11.78h2.11c.29-.54.71-1,1.22-1.33.47-.56.7-1.27.67-2-.07-1.73-1.3-3.2-3-3.55ZM791.13,237.54c-1-2-1.89-2.78-3-2.78-.63.04-1.23.32-1.67.78-.43.47-.8.99-1.11,1.55.78,2,1.33,2.44,2,2.66s1.11,1.44,1.55,1.55,0,1.89.67,2.11c1.12.34,2.32.34,3.44,0,.6-.26,1.07-.73,1.33-1.33.59-1.41.18-3.03-1-4-.67-.4-1.44-.6-2.22-.55ZM796.35,213.34l1.78.56c.5,0,.98-.2,1.33-.56.63-.86.63-2.03,0-2.89-.45-.77-1.34-1.17-2.22-1-.55.17-1.02.52-1.33,1v1.67c.11,1,.33,1.11.44,1.22ZM761.5,225.67c-.34.24-.58.59-.67,1-.06.41-.06.82,0,1.22,1,.78,1.55.78,2,.67s1-2.11,0-2.66c-.39-.27-.88-.35-1.33-.22ZM583.44,282.17c-.52.02-1.01.26-1.33.67-.36.36-.66.77-.89,1.22,0,1.67,1.11,2,1.67,2.11.39.17.83.17,1.22,0,.87-.54,1.31-1.55,1.11-2.55-.2-.83-.93-1.42-1.78-1.44ZM615.52,261.63c-.48.29-.8.78-.89,1.33-.12.55-.12,1.12,0,1.67,1.55,1.11,2.11,1.22,2.78,1.11.45-.12.84-.4,1.11-.78.67-.85.67-2.04,0-2.89-.49-.92-1.64-1.26-2.55-.77-.16.09-.31.2-.44.33ZM569.12,268.63c.16-1.35-.69-2.62-2-3-.75-.27-1.58-.27-2.33,0-.64.46-1.24.98-1.78,1.55-.36.27-.6.67-.67,1.11.49,1.13,1.25,2.13,2.22,2.89.6.25,1.28.25,1.89,0,1.32-.24,2.37-1.24,2.66-2.55ZM679.91,267.74c-.43-.17-.9-.17-1.33,0-.56,1.14-.83,2.4-.78,3.66.12.71.52,1.35,1.11,1.78,1.29.94,3.04.94,4.33,0,1.13-.85,1.54-2.36,1-3.66-.44-.71-1.1-1.26-1.89-1.55-.8-.18-1.62-.26-2.44-.22ZM760.39,241.87c.13-1.05-.47-2.05-1.44-2.44-.56-.28-1.22-.28-1.78,0-.58.27-1.11.64-1.55,1.11,0,2.11,0,2.78,1.11,3.11.45.24.99.24,1.44,0,1-.16,1.84-.84,2.22-1.78ZM741.63,201.91c.46-.11.88-.34,1.22-.67l.89-1.33c-.78-1.33-1.22-1.67-1.78-1.78-.35-.16-.76-.16-1.11,0-.68.57-.98,1.47-.78,2.33.14.77.77,1.36,1.55,1.44ZM629.4,248.53c-.1-.79-.45-1.53-1-2.11-.32-.34-.76-.54-1.22-.56-1.04.06-1.94.77-2.22,1.78-.27.86.1,1.79.89,2.22.52.28,1.14.28,1.67,0,.52-.17,1.01-.43,1.44-.78.23-.1.39-.31.44-.56ZM632.73,94.12c-.26.77.01,1.62.67,2.11.63.49,1.53.38,2.03-.24.22-.28.33-.62.31-.98v-1.22c0-.44-1.78-.67-2.22,0-.29.03-.56.15-.78.33ZM668.81,100.01c.41.46.95.77,1.55.89,1.09.38,2.29.02,3-.89.27-.71.27-1.51,0-2.22-.34-.67-.75-1.3-1.22-1.89-.19-.38-.57-.63-1-.67-.75.27-1.58.27-2.33,0-.85-.11-1.71-.11-2.55,0-.39-.15-.83-.15-1.22,0-.34,1.2-.34,2.47,0,3.66.23.45.57.84,1,1.11.88.39,1.89.39,2.78,0ZM656.48,96.12c.42.19.91.19,1.33,0,1.09-.76,1.97-1.8,2.55-3,.28-.68.28-1.43,0-2.11-.8-1.55-2.5-2.4-4.22-2.11-1.42.28-2.5,1.45-2.66,2.89.01.88.37,1.72,1,2.33.55.77,1.23,1.44,2,2ZM573.34,158.17c-.24.37-.24.85,0,1.22h2.44s-1.89-1.55-2.44-1.22ZM575.12,148.96c-.87,0-1.73.27-2.44.78-.39.3-.67.74-.78,1.22-.1,1.13.52,2.2,1.55,2.66.87.47,1.96.24,2.55-.56.21-.57.21-1.2,0-1.78-.13-.57-.32-1.13-.56-1.67-.05-.25-.16-.48-.33-.67ZM634.95,244.31c1.44-1.22,1.67-1.78,1.55-2.44,0-.47-.19-.92-.56-1.22-.85-.67-2.04-.67-2.89,0-.79.43-1.16,1.36-.89,2.22.23.56.67,1,1.22,1.22.49.19,1.03.26,1.55.22ZM626.62,241.65c.42-1.14,0-2.42-1-3.11-.82-.61-1.95-.61-2.78,0-.43.45-.66,1.05-.67,1.67-.05.63-.05,1.26,0,1.89,1.89.89,2.66.78,3.22.56.53-.14.98-.5,1.22-1ZM627.07,244.31c.22.68.84,1.17,1.55,1.22.45-.03.87-.28,1.11-.67.32-.26.55-.61.67-1,0-1.33-1-1.67-1.44-1.78s-2,.67-2,1.11c.14.35.17.74.11,1.11ZM679.8,232.22c1.89-.89,2-1.22,1.89-1.67s-1.89-1-2.44-.56c-.37.45-.37,1.1,0,1.55.13.26.32.49.56.67ZM721.53,181.71h-2c-1,2.11-1,2.89-.67,3.55.26.51.69.9,1.22,1.11,1.27.44,2.67-.01,3.44-1.11.62-.9.62-2.09,0-3-.57-.43-1.29-.62-2-.56ZM720.87,180.6c1.12.24,2.25-.37,2.66-1.44.22-.61.22-1.28,0-1.89-.24-.63-.62-1.2-1.11-1.67-2.33,0-3,0-3.44.89-.36.44-.56.99-.56,1.55.2,1.28,1.18,2.29,2.44,2.55Z"/></g></svg>